HIERARCHY
ROOT Hips
{
	OFFSET -0.001795 -0.223333 0.028219
	CHANNELS 6 Xposition Yposition Zposition Zrotation Yrotation Xrotation 
	JOINT LeftUpLeg
	{
		OFFSET 0.069520 -0.091406 -0.006815
		CHANNELS 3 Zrotation Yrotation Xrotation
		JOINT LeftLeg
		{
			OFFSET 0.034277 -0.375199 -0.004496
			CHANNELS 3 Zrotation Yrotation Xrotation
			JOINT LeftFoot
			{
				OFFSET -0.013596 -0.397961 -0.043693
				CHANNELS 3 Zrotation Yrotation Xrotation
				JOINT LeftToe
				{
					OFFSET 0.026358 -0.055791 0.119288
					CHANNELS 3 Zrotation Yrotation Xrotation
					End Site
					{
						OFFSET 0.000000 0.000000 0.000000
					}
				}
			}
		}
	}
	JOINT RightUpLeg
	{
		OFFSET -0.067670 -0.090522 -0.004320
		CHANNELS 3 Zrotation Yrotation Xrotation
		JOINT RightLeg
		{
			OFFSET -0.038290 -0.382569 -0.008850
			CHANNELS 3 Zrotation Yrotation Xrotation
			JOINT RightFoot
			{
				OFFSET 0.015774 -0.398415 -0.042312
				CHANNELS 3 Zrotation Yrotation Xrotation
				JOINT RightToe
				{
					OFFSET -0.025372 -0.048144 0.123348
					CHANNELS 3 Zrotation Yrotation Xrotation
					End Site
					{
						OFFSET 0.000000 0.000000 0.000000
					}
				}
			}
		}
	}
	JOINT Spine
	{
		OFFSET -0.002533 0.108963 -0.026696
		CHANNELS 3 Zrotation Yrotation Xrotation
		JOINT Spine1
		{
			OFFSET 0.005487 0.135180 0.001092
			CHANNELS 3 Zrotation Yrotation Xrotation
			JOINT Spine2
			{
				OFFSET 0.001457 0.052922 0.025425
				CHANNELS 3 Zrotation Yrotation Xrotation
				JOINT Neck
				{
					OFFSET -0.002778 0.213870 -0.042857
					CHANNELS 3 Zrotation Yrotation Xrotation
					JOINT Head
					{
						OFFSET 0.005152 0.064970 0.051349
						CHANNELS 3 Zrotation Yrotation Xrotation
						End Site
						{
							OFFSET 0.000000 0.000000 0.000000
						}
					}
				}
				JOINT LeftShoulder
				{
					OFFSET 0.078845 0.121749 -0.034090
					CHANNELS 3 Zrotation Yrotation Xrotation
					JOINT LeftArm
					{
						OFFSET 0.090977 0.030469 -0.008868
						CHANNELS 3 Zrotation Yrotation Xrotation
						JOINT LeftForeArm
						{
							OFFSET 0.259612 -0.012772 -0.027456
							CHANNELS 3 Zrotation Yrotation Xrotation
							JOINT LeftHand
							{
								OFFSET 0.249234 0.008986 -0.001171
								CHANNELS 3 Zrotation Yrotation Xrotation
								End Site
								{
									OFFSET 0.000000 0.000000 0.000000
								}
							}
						}
					}
				}
				JOINT RightShoulder
				{
					OFFSET -0.081759 0.118833 -0.038615
					CHANNELS 3 Zrotation Yrotation Xrotation
					JOINT RightArm
					{
						OFFSET -0.096012 0.032551 -0.009143
						CHANNELS 3 Zrotation Yrotation Xrotation
						JOINT RightForeArm
						{
							OFFSET -0.253742 -0.013329 -0.021401
							CHANNELS 3 Zrotation Yrotation Xrotation
							JOINT RightHand
							{
								OFFSET -0.255298 0.007772 -0.005559
								CHANNELS 3 Zrotation Yrotation Xrotation
								End Site
								{
									OFFSET 0.000000 0.000000 0.000000
								}
							}
						}
					}
				}
			}
		}
	}
}
MOTION
Frames: 7
Frame Time: 0.050000
0.000000 0.937093 0.000000 0.501735 -11.201564 10.461606 7.057512 -0.344309 -11.969218 -1.252570 0.168749 -0.335466 7.522455 15.628051 13.060409 0.000000 0.000000 0.000000 -6.963133 1.413199 -17.660846 0.461379 0.143950 4.171108 -0.755494 -6.421277 8.259376 0.000000 0.000000 0.000000 7.326307 -1.164835 9.044861 -2.157528 1.047520 0.201421 -2.383318 1.497863 6.584808 8.485030 -5.027062 -11.715224 0.000000 0.000000 0.000000 -12.324332 -24.517886 11.644861 -45.513676 -40.146652 10.043323 16.916689 -58.668101 -5.783806 0.000000 0.000000 0.000000 9.612943 17.450361 6.368018 51.003678 33.436961 9.251013 5.387187 70.374347 5.698953 0.000000 0.000000 0.000000 
0.000503 0.938344 0.001547 0.182700 -11.262355 11.280038 6.709861 -0.395390 -12.184837 -0.707162 0.106992 -0.647971 7.062727 14.884924 12.853489 0.000000 0.000000 0.000000 -6.651450 1.435021 -17.460972 0.571668 0.074166 2.884882 -1.299860 -8.029827 9.476527 0.000000 0.000000 0.000000 7.091395 -1.045709 7.692597 -0.957205 0.481958 -0.224183 -2.435310 0.438377 5.348464 8.979862 -5.767195 -9.065896 0.000000 0.000000 0.000000 -14.652455 -23.271371 11.800899 -42.529154 -43.611812 10.550949 18.125409 -58.003558 -6.133153 0.000000 0.000000 0.000000 9.080732 15.299381 5.195657 53.390017 29.216599 7.897284 24.126154 73.120563 19.258232 0.000000 0.000000 0.000000 
0.000929 0.939720 0.003726 0.196104 -11.294369 10.479573 6.786293 -0.366554 -11.871740 -0.965327 0.112685 0.734428 6.565246 14.064212 11.920306 0.000000 0.000000 0.000000 -5.965967 1.378977 -16.263488 -0.716807 0.177917 2.319034 -1.125645 -8.180137 10.693209 0.000000 0.000000 0.000000 7.698254 -0.926289 6.042654 -1.095916 0.539171 -0.414645 -2.574436 -1.588621 5.420690 6.768925 -4.597748 -7.397796 0.000000 0.000000 0.000000 -15.338459 -23.208854 12.437850 -39.360179 -44.242189 9.642440 20.883600 -53.700833 -6.775407 0.000000 0.000000 0.000000 9.069973 13.206756 3.930764 54.495688 25.597817 6.288557 43.269613 71.200800 31.736241 0.000000 0.000000 0.000000 
0.001371 0.940232 0.006423 0.690125 -10.844930 10.826223 6.714080 -0.397257 -12.204698 -0.809929 0.095701 0.455955 6.264635 13.660048 13.554954 0.000000 0.000000 0.000000 -6.513481 1.325106 -16.057737 -0.856779 0.166007 1.835722 -1.453461 -8.679932 10.531755 0.000000 0.000000 0.000000 7.668095 -0.788076 4.538740 -1.262397 0.609123 -0.623416 -2.388482 -3.219770 5.328862 5.989947 -4.055461 -8.025417 0.000000 0.000000 0.000000 -12.727478 -22.014270 11.529752 -39.657937 -46.703835 10.920062 24.415806 -54.468541 -8.361668 0.000000 0.000000 0.000000 7.680388 10.453581 2.647597 56.387116 22.899527 5.096543 56.346322 68.642834 39.127630 0.000000 0.000000 0.000000 
0.001889 0.941490 0.009486 0.976405 -11.475467 9.837635 6.092700 -0.414941 -11.238675 -0.212209 0.008516 0.861572 5.868209 12.920471 12.544666 0.000000 0.000000 0.000000 -6.548916 1.231601 -14.717806 -1.528180 0.168943 0.770608 -0.577915 -7.471806 11.525519 0.000000 0.000000 0.000000 7.645394 -0.718272 4.174728 -1.495483 0.698373 -1.255467 -2.185687 -3.862122 5.896266 5.341832 -3.740335 -7.549985 0.000000 0.000000 0.000000 -11.862572 -21.111844 11.048952 -37.811146 -46.545436 10.202755 29.242698 -56.116713 -11.019743 0.000000 0.000000 0.000000 7.381317 9.201150 2.037970 56.535539 20.976244 4.029929 62.047848 66.804824 41.509877 0.000000 0.000000 0.000000 
0.002526 0.942178 0.012348 1.315716 -11.706685 10.056418 5.704048 -0.450362 -11.218238 -0.295195 0.029312 0.463997 5.735981 12.735669 13.962499 0.000000 0.000000 0.000000 -7.045216 1.200290 -14.432590 -1.557018 0.112110 -0.275903 -0.680641 -8.049756 12.461525 0.000000 0.000000 0.000000 7.525599 -0.618878 3.229196 -1.402480 0.646810 -1.634940 -2.101981 -3.364956 5.971543 5.670088 -3.776544 -9.544994 0.000000 0.000000 0.000000 -11.154086 -19.962321 10.238766 -37.815313 -45.961601 9.999263 31.421658 -59.778289 -13.044653 0.000000 0.000000 0.000000 6.861798 8.648704 1.916423 56.296979 19.670293 3.377607 64.003134 66.358011 42.699148 0.000000 0.000000 0.000000 
0.003211 0.941822 0.014973 1.381815 -12.257416 9.596952 5.303840 -0.460417 -10.775621 0.001483 -0.017002 0.761294 5.833018 12.814637 13.623033 0.000000 0.000000 0.000000 -7.067896 1.165511 -13.795795 -1.611973 0.097060 -0.604298 -0.339036 -7.383713 12.189704 0.000000 0.000000 0.000000 7.366902 -0.546894 2.761421 -1.700685 0.764223 -2.127480 -1.898457 -2.633663 6.364011 5.635173 -3.688427 -10.243925 0.000000 0.000000 0.000000 -10.236812 -18.839358 9.391948 -38.035228 -43.539990 9.149929 33.984388 -64.116687 -15.769336 0.000000 0.000000 0.000000 6.931278 8.292494 1.809569 55.918925 20.341027 3.645652 61.583315 65.971109 40.775261 0.000000 0.000000 0.000000 
